<?xml version="1.0" standalone="no"?>
<!DOCTYPE svg PUBLIC "-//W3C//DTD SVG 20010904//EN"
 "http://www.w3.org/TR/2001/REC-SVG-20010904/DTD/svg10.dtd">
<svg version="1.0" xmlns="http://www.w3.org/2000/svg"
 width="500.000000pt" height="500.000000pt" viewBox="0 0 500.000000 500.000000"
 preserveAspectRatio="xMidYMid meet">
<metadata>
Created by potrace 1.14, written by Peter Selinger 2001-2017
</metadata>
<g transform="translate(0.000000,500.000000) scale(0.100000,-0.100000)"
fill="#000000" stroke="none">
<path d="M2305 4894 c-602 -63 -1094 -292 -1500 -699 -370 -369 -603 -831
-681 -1350 -25 -166 -26 -523 -1 -685 83 -534 311 -987 686 -1360 372 -370
821 -595 1351 -677 160 -25 520 -25 680 0 530 82 984 310 1355 682 372 371
600 825 682 1355 25 160 25 520 0 680 -82 530 -310 984 -682 1355 -368 369
-826 600 -1345 680 -101 16 -458 28 -545 19z m520 -169 c474 -71 895 -279
1239 -614 186 -182 313 -352 432 -576 l57 -108 -29 -24 c-57 -47 -341 -232
-464 -303 -168 -97 -490 -254 -680 -333 -661 -274 -1480 -527 -2273 -702 -231
-51 -667 -132 -737 -137 l-45 -3 -23 104 c-12 57 -21 105 -19 107 2 2 136 26
298 53 338 57 546 100 850 177 358 90 770 225 811 266 28 28 24 82 -8 107 -15
12 -32 21 -39 21 -8 0 -75 -23 -151 -50 -264 -97 -656 -205 -1029 -285 -155
-33 -747 -137 -752 -131 -1 1 -5 50 -9 108 l-7 107 34 5 c19 3 147 24 284 47
399 64 737 140 983 221 114 36 125 42 137 71 11 25 11 38 1 62 -22 53 -49 54
-198 7 -262 -82 -636 -163 -1046 -228 -95 -15 -175 -24 -179 -21 -3 4 0 54 7
112 l13 105 31 5 c17 3 105 16 196 31 278 43 661 130 686 156 26 25 27 71 4
101 -27 34 -52 35 -181 2 -202 -52 -685 -143 -696 -132 -5 5 47 178 62 207 12
22 26 27 166 51 245 42 368 70 394 91 49 38 21 128 -40 128 -13 0 -102 -15
-197 -34 -95 -19 -190 -37 -212 -41 l-39 -6 53 98 c115 216 243 385 426 564
383 373 853 585 1404 633 91 8 378 -4 485 -19z m1801 -1491 c25 -60 81 -292
100 -414 25 -159 25 -481 0 -640 -63 -409 -227 -783 -479 -1095 -90 -111 -283
-297 -397 -382 -305 -228 -646 -370 -1030 -429 -159 -25 -481 -25 -640 0 -135
21 -346 73 -445 111 -112 42 -235 97 -235 104 0 3 50 19 112 35 197 50 326 95
343 118 21 31 19 68 -7 95 -29 31 -48 29 -186 -13 -144 -44 -428 -114 -462
-114 -23 0 -221 136 -224 154 0 4 94 31 209 61 264 66 456 129 480 155 40 45
10 120 -48 120 -16 0 -84 -18 -151 -39 -120 -38 -464 -128 -580 -151 l-58 -12
-50 49 c-27 26 -67 69 -89 94 l-39 46 118 23 c267 52 833 199 905 237 40 20
52 59 33 100 -24 50 -51 51 -184 10 -243 -76 -577 -158 -855 -212 l-119 -23
-43 68 c-47 74 -78 131 -73 134 2 2 104 22 228 46 461 88 817 176 1138 282
189 62 212 76 212 126 0 34 -16 58 -47 71 -25 10 -43 6 -138 -28 -266 -95
-687 -202 -1135 -289 -338 -66 -336 -66 -343 -50 -3 7 -21 52 -41 100 -34 87
-35 88 -13 92 12 3 80 14 152 26 699 115 1602 351 2320 607 689 245 1120 450
1557 739 86 57 159 108 163 114 12 19 26 10 41 -26z"/>
<path d="M2560 4593 c-150 -25 -303 -98 -402 -191 -86 -82 -134 -155 -172
-262 -25 -74 -29 -99 -29 -195 -1 -137 19 -217 83 -350 59 -120 123 -207 223
-302 177 -168 419 -287 661 -324 108 -17 334 -6 426 21 196 57 362 189 440
352 75 156 85 308 34 486 -109 375 -494 692 -927 762 -60 10 -286 12 -337 3z
m399 -173 c161 -42 332 -130 438 -224 l55 -50 -126 -63 -127 -64 -47 34 c-105
77 -203 109 -330 108 l-87 0 -85 131 c-47 73 -86 135 -88 139 -11 27 284 18
397 -11z m-459 -180 l93 -140 -38 -41 c-84 -93 -108 -218 -65 -331 11 -29 20
-53 20 -53 0 0 -59 -30 -131 -65 l-131 -65 -20 25 c-12 14 -36 57 -54 95 -101
217 -82 438 50 592 37 43 148 123 171 123 7 0 54 -63 105 -140z m1108 -292
c60 -106 84 -187 90 -299 4 -80 1 -109 -16 -166 -39 -126 -129 -236 -245 -295
-48 -24 -39 -33 -149 138 l-85 130 36 31 c91 76 126 223 81 344 -12 33 -20 62
-18 64 9 8 245 124 254 124 6 1 29 -32 52 -71z m-626 29 c103 -46 190 -146
204 -233 33 -207 -277 -264 -467 -87 -136 127 -128 285 17 339 59 22 176 13
246 -19z m-335 -463 c101 -77 207 -114 328 -115 l80 -1 92 -138 91 -138 -36
-6 c-185 -30 -461 34 -655 152 -70 43 -195 140 -196 152 -1 4 232 126 246 129
2 1 24 -15 50 -35z"/>
</g>
</svg>
